<svg width="58" height="58" viewBox="0 0 58 58" fill="none" xmlns="http://www.w3.org/2000/svg">
<circle cx="29" cy="29" r="27" fill="white" fill-opacity="0.75"/>
<circle cx="29" cy="29" r="28" stroke="#143F00" stroke-opacity="0.5" stroke-width="2" stroke-linejoin="round"/>
<path opacity="0.9" d="M29.7224 17.123C28.0942 17.1542 26.3871 17.4273 24.6853 17.9679C20.7163 19.2286 17.4312 21.7565 15.8959 24.7309C14.9065 26.6477 14.6996 28.61 15.2845 30.4169C15.2777 30.4112 15.2616 30.3974 15.2616 30.3974C16.4931 34.3112 20.941 40.8799 29.688 40.8799C30.2286 40.8799 30.7777 40.8267 31.3273 40.7277C32.1169 40.9235 32.9454 40.9334 33.3916 40.7314C33.772 40.5593 34.1833 40.1243 34.4988 39.5996C38.0017 37.6935 40.88 33.715 40.88 28.0447C40.88 26.6023 40.5437 24.8332 40.2801 23.6984C40.2189 23.3566 40.1409 23.0182 40.0259 22.6864C38.7876 19.1132 34.6072 17.0292 29.7224 17.123ZM30.1131 19.0068C34 19.0068 37.2332 20.5854 38.1718 23.2936C38.6403 24.6456 38.4789 26.1535 37.7047 27.6538C36.3983 30.1842 33.5392 32.3552 30.0558 33.4614C24.2649 35.3011 18.4867 33.7241 17.1769 29.9443C16.7084 28.5919 16.8698 27.0836 17.644 25.5833C18.9504 23.0528 21.8095 20.8818 25.2929 19.7756C26.9348 19.2537 28.5749 19.0068 30.1131 19.0068ZM30.4838 20.3522C29.0214 20.309 27.4192 20.5272 25.8077 21.0374C25.5608 21.1154 25.3214 21.2034 25.0837 21.2918L27.2435 24.8284C27.4533 24.7832 27.6587 24.7607 27.8558 24.7578L31.8947 20.4822C31.4432 20.4109 30.9712 20.3666 30.4838 20.3522ZM33.4881 20.8852L29.0413 25.0707C29.1871 25.1777 29.2943 25.3113 29.3613 25.4663L36.7599 25.2221C36.8152 24.6816 36.7679 24.1469 36.5889 23.6335C36.1458 22.3632 35.0146 21.4271 33.4881 20.8852ZM23.7673 21.8582C21.6163 22.9107 19.992 24.3807 19.182 25.9314L25.7485 25.6083C25.8835 25.4709 26.0408 25.3422 26.2262 25.2286L23.7673 21.8582ZM29.1646 26.5108C29.032 26.6896 28.8553 26.8578 28.6401 27.0066L31.3942 31.156C33.8299 30.0193 35.6278 28.3462 36.3873 26.6102L29.1646 26.5108ZM25.3292 26.6937L18.669 27.4049C18.5609 28.0377 18.5954 28.6661 18.8047 29.2656C19.2395 30.5121 20.338 31.4347 21.8205 31.9814L25.6931 27.248C25.5312 27.1287 25.4104 26.9788 25.3483 26.8005C25.336 26.7658 25.337 26.7294 25.3292 26.6937ZM27.6992 27.4411C27.3896 27.5281 27.0868 27.5661 26.8022 27.5618L23.325 32.3825C25.1684 32.7072 27.3658 32.5638 29.5849 31.8607C29.8089 31.7899 30.025 31.7103 30.2411 31.6304L27.6992 27.4411Z" fill="#2D491F"/>
<defs>
<filter id="filter0_b_1712_1995" x="-4" y="-4" width="66" height="66" filterUnits="userSpaceOnUse" color-interpolation-filters="sRGB">
<feFlood flood-opacity="0" result="BackgroundImageFix"/>
<feGaussianBlur in="BackgroundImage" stdDeviation="2"/>
<feComposite in2="SourceAlpha" operator="in" result="effect1_backgroundBlur_1712_1995"/>
<feBlend mode="normal" in="SourceGraphic" in2="effect1_backgroundBlur_1712_1995" result="shape"/>
</filter>
</defs>
</svg>
