<svg width="58" height="58" viewBox="0 0 58 58" fill="none" xmlns="http://www.w3.org/2000/svg">
<circle cx="29" cy="29" r="27" fill="white" fill-opacity="0.75"/>
<circle cx="29" cy="29" r="28" stroke="#143F00" stroke-opacity="0.5" stroke-width="2" stroke-linejoin="round"/>
<path opacity="0.9" fill-rule="evenodd" clip-rule="evenodd" d="M15.631 15.5535C13.1367 18.0097 18.5174 26.2745 23.376 27.4498C24.2559 27.6627 24.3717 27.54 24.8079 25.9356C25.3088 24.0904 27.3665 21.6778 28.4387 21.6778C29.4136 21.6778 29.152 21.097 27.4028 19.3774C25.5666 17.5725 23.128 16.2543 20.2094 15.4894C17.6482 14.8177 16.3602 14.8359 15.631 15.5535ZM25.0767 16.0482C26.9587 17.1113 30.1803 20.189 30.1803 20.9241C30.1803 21.1336 30.4358 21.305 30.7482 21.305C32.5882 21.305 29.1891 17.2213 26.2049 15.8469C23.5494 14.6238 22.7937 14.7588 25.0767 16.0482ZM36.3409 15.2769C34.7875 15.7377 33.9485 16.7199 34.3048 17.6601C34.5596 18.3325 34.4002 18.7642 33.5392 19.7338C32.6696 20.7131 32.4519 21.3121 32.4519 22.726C32.4519 24.7532 33.1182 25.8928 34.8053 26.752C36.1599 27.4416 39.7206 27.5497 41.2589 26.9481C43.6676 26.0057 43.5631 22.9773 41.0325 20.3768L39.4306 18.7307L40.5793 18.6199C42.8241 18.4034 41.3032 17.7637 38.5432 17.7637C35.3648 17.7637 34.5334 17.1259 36.877 16.4851C37.6709 16.2677 38.5474 16.0896 38.8249 16.0884C39.1028 16.0873 39.2599 15.8767 39.1743 15.6202C38.9956 15.0838 37.5721 14.9112 36.3409 15.2769ZM39.2754 20.2918C39.5927 20.5416 40.2325 21.2309 40.6974 21.8236C41.6708 23.0656 41.3021 23.9144 39.7884 23.9144C37.9832 23.9144 36.6472 21.424 37.828 20.2613C38.3849 19.7129 38.5443 19.7163 39.2754 20.2918ZM28.8241 22.7846C26.0698 23.8816 25.0737 27.974 27.0098 30.2393C29.3481 32.9755 34.1435 33.9726 36.03 32.1155C36.5506 31.6029 37.086 30.6456 37.2192 29.9884C37.4559 28.8216 37.4199 28.7825 35.7029 28.3572C33.3991 27.7857 31.8359 26.3084 31.2491 24.1482C30.7667 22.3727 30.39 22.1609 28.8241 22.7846ZM22.8725 29.1419C20.2972 31.1362 19.3939 38.2513 21.249 41.9298C22.2383 43.8921 25.2584 46.8024 25.2584 45.7933C25.2584 45.5021 25.9846 44.9907 26.872 44.6571C30.354 43.3479 32.8513 40.0928 33.42 36.1228C33.6539 34.49 33.6112 34.3521 32.8736 34.3521C32.4333 34.3521 32.0733 34.5381 32.0733 34.7651C32.0733 35.8958 26.5582 33.3814 24.8594 31.4765C23.7474 30.2292 23.7031 30.0846 24.3036 29.6526C24.6621 29.3942 24.8435 29.0039 24.706 28.7855C24.3483 28.2155 23.975 28.2882 22.8725 29.1419ZM25.5965 38.245C26.5559 38.7229 28.065 39.3275 28.9498 39.5881C30.6656 40.0932 30.8212 40.2818 30.1045 40.9875C29.4374 41.6443 27.8303 41.5351 25.4935 40.674C22.3557 39.518 21.4724 38.6893 21.4724 36.9015V35.4041L22.6624 36.3897C23.3166 36.9321 24.6368 37.7667 25.5965 38.245Z" fill="#2D491F"/>
<defs>
<filter id="filter0_b_1712_1999" x="-8" y="-8" width="74" height="74" filterUnits="userSpaceOnUse" color-interpolation-filters="sRGB">
<feFlood flood-opacity="0" result="BackgroundImageFix"/>
<feGaussianBlur in="BackgroundImage" stdDeviation="4"/>
<feComposite in2="SourceAlpha" operator="in" result="effect1_backgroundBlur_1712_1999"/>
<feBlend mode="normal" in="SourceGraphic" in2="effect1_backgroundBlur_1712_1999" result="shape"/>
</filter>
</defs>
</svg>
